<svg xmlns="http://www.w3.org/2000/svg" id="Layer_1" data-name="Layer 1" viewBox="0 0 66.72 18.75"><defs><style>.cls-1{fill:#ff5e7f}.cls-2{fill:#ff073a}</style></defs><title>graph</title><path d="M60.57,13.5a1,1,0,0,1-1,1H58.26a2,2,0,0,1-1.68-.92L53.89,9.37A1,1,0,0,0,53,8.9H48.6a2,2,0,0,1-1.09-.32L45.88,7.51a1,1,0,0,0-1.18.07L40.12,11.3a1,1,0,0,1-.84.2A1,1,0,0,1,38.6,11L37.22,8.3a1,1,0,0,0-.83-.53l-2.77-.16a2,2,0,0,1-1-.32l-.9-.58a1,1,0,0,0-.95-.08l-1.63.72a2,2,0,0,1-1.44.07l-2.44-.81a1,1,0,0,0-1,.22l-4.72,4.42a1,1,0,0,1-.78.27,1,1,0,0,1-.72-.41L15.65,7.77a1,1,0,0,0-.66-.4L5.12,5.88a1,1,0,0,0-1,.49L3.22,7.9a.87.87,0,0,1-.17.21l-1.66-1a.77.77,0,0,1,.1-.25l1.57-2.7a1,1,0,0,1,1-.49L15.7,5.45a2,2,0,0,1,1.32.8L18.36,8.1a1,1,0,0,0,1.49.15L23.36,5a2,2,0,0,1,2-.44L28,5.4a1,1,0,0,0,.71,0l1.78-.79a2,2,0,0,1,1.89.16l1.13.73a1.09,1.09,0,0,0,.49.16l3.07.17a2,2,0,0,1,1.66,1.08l.52,1a1,1,0,0,0,1.52.32L44,5.56a2,2,0,0,1,2.35-.12l2,1.3a1,1,0,0,0,.55.16h4.69a2,2,0,0,1,1.69.93L58,12a1,1,0,0,0,.84.46h.76A1,1,0,0,1,60.57,13.5Z" class="cls-1"/><circle cx="61.15" cy="13.59" r="2.21" class="cls-2"/></svg>