<svg xmlns="http://www.w3.org/2000/svg" id="Layer_1" data-name="Layer 1" viewBox="0 0 66.82 18.75"><defs><style>.cls-1{fill:#ffb594}.cls-2{fill:#b26900}</style></defs><title>graph</title><path d="M2.33,15.25l-1.2-1.08.52-.58a9.1,9.1,0,0,1,6.74-3h.66A7.36,7.36,0,0,0,11.9,10l4-1.66a8.29,8.29,0,0,1,2.14-.59l13.5-2a9.07,9.07,0,0,1,6,1.17A7.47,7.47,0,0,0,44,7.5l6.84-2.64a9.14,9.14,0,0,1,5.8-.25L61.83,6.1l-.45,1.55L56.23,6.16a7.5,7.5,0,0,0-4.77.21L44.62,9a9,9,0,0,1-7.9-.65,7.56,7.56,0,0,0-4.9-1l-13.51,2a7.81,7.81,0,0,0-1.76.49l-4,1.66a9,9,0,0,1-3.47.69H8.39a7.48,7.48,0,0,0-5.54,2.46Z" class="cls-1"/><circle cx="63.03" cy="7.51" r="1.79" class="cls-2"/></svg>