<svg xmlns="http://www.w3.org/2000/svg" id="Layer_1" data-name="Layer 1" viewBox="0 0 66.72 18.75"><defs><style>.cls-1{fill:#a3a8ae}.cls-2{fill:#6c757d}</style></defs><title>graph</title><path d="M62.2,13.27H57.47a3.11,3.11,0,0,1-1.84-.6l-3.07-2.29a1.14,1.14,0,0,0-.64-.21l-4.73-.1a.89.89,0,0,0-.64.19l-2.77,1.86a3.08,3.08,0,0,1-1.72.52H40.72a3,3,0,0,1-1.79-.57l-4-2.85a1.13,1.13,0,0,0-.59-.2L32.55,9a3.1,3.1,0,0,1-1.92-.78l-3.4-3a1.13,1.13,0,0,0-1.71.32L23.39,9.69A3.06,3.06,0,0,1,21,11.37l-7.54.77a3.06,3.06,0,0,1-2.68-1.09L9.8,9.92a1.15,1.15,0,0,0-.75-.39L7.17,9.36a1.1,1.1,0,0,0-.75.21l-1.21.89a3.11,3.11,0,0,1-1.83.6H.6v-2H3.38A1.08,1.08,0,0,0,4,8.87L5.24,8a3.15,3.15,0,0,1,2.1-.59l1.88.17a3.09,3.09,0,0,1,2.1,1.1l.94,1.13a1.1,1.1,0,0,0,1,.39l7.54-.78a1.1,1.1,0,0,0,.87-.6l2.12-4.21a3.08,3.08,0,0,1,4.8-.91l3.39,3a1.09,1.09,0,0,0,.69.28L34.41,7a3.1,3.1,0,0,1,1.67.57l4,2.85a1.1,1.1,0,0,0,.64.2h1.34a1.15,1.15,0,0,0,.62-.18l2.77-1.87a3.22,3.22,0,0,1,1.78-.52l4.73.1a3,3,0,0,1,1.77.61l3.08,2.28a1.11,1.11,0,0,0,.66.22H62.2Z" class="cls-1"/><circle cx="63.95" cy="12.07" r="2.19" class="cls-2"/></svg>