<?xml version="1.0" encoding="utf-8"?>
<!-- Generator: Adobe Illustrator 23.1.0, SVG Export Plug-In . SVG Version: 6.00 Build 0)  -->
<svg version="1.1" id="Layer_1" xmlns="http://www.w3.org/2000/svg" xmlns:xlink="http://www.w3.org/1999/xlink" x="0px" y="0px"
	 viewBox="0 0 66.8 17.5" style="enable-background:new 0 0 66.8 17.5;" xml:space="preserve">
<style type="text/css">
	.st0{fill:#1DBFB3;}
	.st1{fill:#0E918C;}
</style>
<title>population</title>
<g>
	<path class="st0" d="M3.1,17.1l-0.9-1.2c0.2-0.1,5.3-3.7,10.6-2.8C17.6,14,27.9,9.7,28,9.7c0.4-0.2,11.4-6,15.9-5.1
		c1.7,0.3,3.6-0.5,5.6-1.5c2.6-1.2,5.6-2.6,8.8-1.4l-0.5,1.4c-2.6-1-5.2,0.2-7.7,1.4c-2.1,1-4.3,2-6.5,1.6c-3.4-0.7-12,3.4-15,5
		c-0.5,0.2-10.9,4.6-16.1,3.6C7.8,13.7,3.1,17.1,3.1,17.1z"/>
	<circle class="st1" cx="58.1" cy="2.4" r="1.8"/>
</g>
</svg>
