<svg xmlns="http://www.w3.org/2000/svg" id="Layer_1" data-name="Layer 1" viewBox="0 0 66.82 18.75"><defs><style>.cls-1{fill:#73c686}.cls-2{fill:#28a745}</style></defs><title>graph</title><path d="M61,12.89l-2.76-1.71a.92.92,0,0,0-.63-.11l-2.34.45a2.81,2.81,0,0,1-2.75-1.07l-.84-1.14A.9.9,0,0,0,51,9H49.39a2.77,2.77,0,0,1-1.13-.25l-4.38-2a.89.89,0,0,0-1.14.37L41.64,9a2.76,2.76,0,0,1-4.49.45.92.92,0,0,0-.68-.3H34.71a2.77,2.77,0,0,1-2.23-1.13L31.33,6.51a.89.89,0,0,0-.72-.37H25.79a.9.9,0,0,0-.45.13L23.25,7.5a2.77,2.77,0,0,1-3-.1l-1.11-.76a.88.88,0,0,0-1,0l-1.34.79A2.79,2.79,0,0,1,13.56,7l-.63-.58a.91.91,0,0,0-.7-.23L6,6.91a2.83,2.83,0,0,1-.77,0L.78,6.13,1.1,4.28,5.5,5a.65.65,0,0,0,.24,0L12,4.36a2.74,2.74,0,0,1,2.19.72l.63.58a.88.88,0,0,0,1.06.12L17.24,5a2.79,2.79,0,0,1,3,.09l1.12.77a.88.88,0,0,0,.95,0l2.09-1.23a2.73,2.73,0,0,1,1.41-.39h4.82a2.78,2.78,0,0,1,2.24,1.13L34,6.94a.9.9,0,0,0,.72.36h1.76a2.78,2.78,0,0,1,2.09,1A.9.9,0,0,0,40,8.11l1.1-1.93A2.76,2.76,0,0,1,44.66,5L49,7a.89.89,0,0,0,.36.07H51a2.78,2.78,0,0,1,2.23,1.12L54,9.32a.91.91,0,0,0,.89.35l2.33-.45a2.79,2.79,0,0,1,2,.36L62,11.29Z" class="cls-1"/><circle cx="62.89" cy="12.89" r="2.08" class="cls-2"/></svg>