<?xml version="1.0" encoding="utf-8"?>
<!-- Generator: Adobe Illustrator 23.1.0, SVG Export Plug-In . SVG Version: 6.00 Build 0)  -->
<svg version="1.1" id="Capa_1" xmlns="http://www.w3.org/2000/svg" xmlns:xlink="http://www.w3.org/1999/xlink" x="0px" y="0px"
	 viewBox="0 0 173 174.4" style="enable-background:new 0 0 173 174.4;" xml:space="preserve">
<style type="text/css">
	.st0{fill:#EB5569;}
	.st1{fill:#F58A97;}
	.st2{fill:#F07281;}
</style>
<g>
	<g id="XMLID_107_">
		<g>
			<path class="st0" d="M173,82.1c0.6,8.2-5.1,15.4-12.8,16.2c-5.9,0.6-11.3-2.8-13.7-8.1l-7,0.6l-5.3,2.6c-1.2,0.6-2,1.7-2.2,3.1
				c-0.5,3.6-1.4,7-2.7,10.3c-0.4,1.1-0.4,2.3,0.2,3.4l1.9,3.4l5.2,3.5c2.8-1.1,6-0.8,8.6,1c4.5,3,5.6,9.2,2.2,13.6
				c-2.9,3.8-8.2,4.8-12.3,2.4c-2.6-1.5-4.2-4.1-4.5-6.8l-5.8-3.9l-3.7-0.4c-1.3-0.2-2.5,0.3-3.4,1.2c-3.1,2.9-6.6,5.5-10.4,7.5
				c-1.3,0.7-2.1,2-2.2,3.4l-0.5,7.4l2.3,9.1c3.9,1.1,7.1,4.2,8.2,8.4c1.6,6.4-2.4,12.9-8.8,14.3c-5.8,1.3-11.8-2.1-13.7-7.8
				c-1.4-4.4-0.1-9,2.9-12l-2.3-9.2l-3.6-5.7c-1-1.5-2.6-2.4-4.5-2.4c0,0,0,0,0,0c-3.1,0-6.2-0.3-9.1-0.9c-1.8-0.3-3.6,0.2-4.8,1.5
				l-4.7,5l-5.3,10.9c1.2,2.5,1.3,5.5,0,8.3c-2.3,4.9-8.3,6.8-13.1,4.1c-4.1-2.3-5.9-7.4-4.1-11.8c1.2-3,3.7-5,6.6-5.6l5.3-11l1-7.4
				c0.2-1.4-0.3-2.7-1.4-3.6c-4.2-3.4-7.8-7.6-10.7-12.2c-0.7-1.2-2-1.9-3.3-1.9l-7.4-0.1l-8.1,2.5c-0.6,5-4,9.5-9.1,11.1
				c-6.9,2.2-14.2-1.6-16.5-8.5c-2.2-6.9,1.5-14.3,8.4-16.6c4.8-1.6,9.8-0.3,13.2,3l8.6-2.7l6.3-4.5c0.9-0.7,1.4-1.8,1.3-2.9
				c-0.1-1.3-0.2-2.5-0.2-3.8c0-7,1.5-13.6,4.3-19.6c0.4-0.9,0.4-1.9,0-2.7l-1.9-3.8l-5-3.8c-2.8,0.9-6,0.5-8.6-1.4
				c-4.3-3.3-5-9.5-1.5-13.7c3.1-3.6,8.5-4.3,12.4-1.7c2.5,1.7,3.9,4.3,4.1,7l5.6,4.2l5.6,1c4.1-3.8,8.9-6.9,14.1-9l1.3-8l-1.7-8.3
				c-4.9-1.3-8.9-5.1-10-10.1C55.6,12.9,60.5,6,68,4.5C75.6,3.1,83,7.7,84.5,14.8c1.1,5.3-1.3,10.6-5.8,13.4l1.6,7.8l3.9,6.2
				c0.3,0.4,0.7,0.6,1.2,0.6h0c8.9,0,17.1,2.5,24.2,6.7c0.4,0.2,0.9,0.3,1.3,0.1l6.1-2.8l7.1-7.6c-0.4-2.7,0.4-5.6,2.4-7.8
				c3.7-4,10-4.1,13.7-0.1c3.3,3.5,3.5,9,0.3,12.7c-2,2.4-5,3.4-7.8,3.2l-7.1,7.6l-2.3,6.2c-0.2,0.4-0.1,0.9,0.2,1.3
				c2.8,3.8,5,8.1,6.5,12.7c0.4,1.3,1.4,2.2,2.7,2.6l5.7,1.6l7.5-0.7c1.8-5.3,6.4-9.3,12-9.8C165.6,67.9,172.3,73.9,173,82.1
				L173,82.1z"/>
		</g>
	</g>
	<g id="XMLID_8_">
		<g>
			<circle class="st1" cx="85.3" cy="89.9" r="34.8"/>
		</g>
	</g>
	<path class="st2" d="M61.1,89.9c0-17.4,12.8-31.9,29.5-34.4c-1.7-0.3-3.5-0.4-5.3-0.4c-19.2,0-34.8,15.6-34.8,34.8
		s15.6,34.8,34.8,34.8c1.8,0,3.6-0.1,5.3-0.4C73.9,121.8,61.1,107.4,61.1,89.9L61.1,89.9z"/>
	<g>
		<circle class="st0" cx="26.7" cy="16.7" r="9.9"/>
		<circle class="st0" cx="24" cy="147.4" r="6.5"/>
		<circle class="st0" cx="144.3" cy="158.2" r="9.6"/>
		<circle class="st0" cx="74.6" cy="80.3" r="9"/>
		<circle class="st0" cx="81.8" cy="108.3" r="6.1"/>
		<circle class="st0" cx="101.1" cy="89.9" r="5.1"/>
	</g>
</g>
</svg>
